Coordinates
version=1
nRows=13
nColumns=36
inDegrees=yes

Units are S.I. units (second, meters, Newtons, ...)
If the header above contains a line with 'inDegrees', this indicates whether rotational values are in degrees (yes) or radians (no).

endheader
time	pelvis_tilt	pelvis_list	pelvis_rotation	pelvis_tx	pelvis_ty	pelvis_tz	hip_flexion_r	hip_adduction_r	hip_rotation_r	knee_angle_r	knee_angle_r_beta	ankle_angle_r	subtalar_angle_r	mtp_angle_r	hip_flexion_l	hip_adduction_l	hip_rotation_l	knee_angle_l	knee_angle_l_beta	ankle_angle_l	subtalar_angle_l	mtp_angle_l	lumbar_extension	lumbar_bending	lumbar_rotation	arm_flex_r	arm_add_r	arm_rot_r	elbow_flex_r	pro_sup_r	arm_flex_l	arm_add_l	arm_rot_l	elbow_flex_l	pro_sup_l
      0.00000000	      1.64926617	     -1.90877168	     -0.16182208	     -0.90477355	      1.24668092	     -0.08044903	     -4.98078258	      1.33647941	     -2.52636774	      5.21863508	      0.09108236	      4.29713151	     -8.04568263	     -5.53314068	     -6.88740718	     -2.61262211	     -1.79979169	      2.69012321	      0.04695151	      9.13586570	     -1.04605711	     -5.53314068	     -8.38111369	      3.11220787	     -0.60330455	      3.38738949	     -8.11253951	     19.03271914	     23.93948485	     73.64739892	     -0.35990584	     -6.61154796	     17.37324913	     25.97000237	     68.09717062
      0.00416670	     -0.31263496	     -1.30869917	      0.08136690	     -0.90137971	      1.24419266	     -0.08093773	     -2.73079466	      0.95718355	     -2.04240962	      5.69789253	      0.09944699	      7.27142187	     -6.08072037	     -5.70906142	     -4.70891431	     -1.44288781	     -0.71741267	      2.51198338	      0.04384238	      8.72678018	     -0.23659233	     -5.70906142	     -5.24838247	      2.60668241	     -1.12033003	      2.47131033	     -7.33540519	     16.89455918	     23.81839058	     73.09276417	     -1.23223149	     -5.99025969	     15.57504475	     25.57728772	     67.75261204
      0.00833330	     -0.97546497	     -0.35698776	      0.00946250	     -0.90105723	      1.23694359	     -0.08055535	     -2.28308197	     -0.04757580	     -2.73211529	      4.97795321	      0.08688167	      8.21534136	     -5.27139421	     -6.20595515	     -4.22839396	     -0.37519898	     -0.90637515	      2.30740580	      0.04027183	      8.94247513	      0.27838696	     -6.20595515	     -4.29196980	      1.27762712	     -0.57704887	      1.06612627	     -5.91559613	      7.37498436	     25.51719211	     80.58046509	     -1.52646218	     -5.88204889	     11.33443399	     25.94913560	     73.99614047
      0.01250000	     -0.67148633	      0.07127185	     -0.07095872	     -0.90029991	      1.24232282	     -0.08013645	     -2.93969369	     -0.54303903	     -2.99486986	      4.61545371	      0.08055486	      8.75103206	     -4.23629705	     -6.24543700	     -5.04830033	      0.19140425	     -0.23840607	      1.63007589	      0.02845019	      8.74039546	     -0.13347307	     -6.24543700	     -4.51406037	      0.72839499	     -0.51691130	      0.87785759	     -5.68676653	      6.59187083	     25.80136504	     80.55911929	     -1.80986764	     -6.13514683	     10.73290440	     26.36212363	     74.01982147
      0.01666670	     -0.64411081	      0.20606781	     -0.01377286	     -0.90048121	      1.24216041	     -0.07992915	     -3.20688245	     -0.67547016	     -2.92501194	      4.20371788	      0.07336872	      8.79332282	     -4.28349586	     -6.53705006	     -5.33928539	      0.37589204	     -0.28655854	      1.27453420	      0.02224482	      8.86855399	      0.05553559	     -6.53705006	     -4.49808277	      0.54717055	     -0.39092532	      0.53088006	     -5.53165106	      5.99912319	     26.49787311	     78.03522713	     -1.95858721	     -6.20057306	     10.24017508	     26.70987912	     72.27644362
      0.02083330	     -0.41521391	      0.27312467	      0.09431428	     -0.89816377	      1.24206113	     -0.08026313	     -3.69895740	     -0.72078262	     -2.93039906	      3.92788177	      0.06855447	      8.70093544	     -4.33451654	     -6.76501882	     -5.78572857	      0.45698716	      0.13755104	      1.03804416	      0.01811729	      8.65012366	     -0.42149136	     -6.76501882	     -4.66084557	      0.42188191	     -0.30919155	      0.25568808	     -5.55327143	      6.00915911	     26.96531933	     76.00014550	     -1.92252769	     -6.26699985	     10.13479444	     26.89190797	     70.94822192
      0.02500000	     -0.48935823	      0.29582318	      0.05659067	     -0.89997380	      1.24360844	     -0.08094420	     -3.67337296	     -0.75493592	     -2.93731126	      3.76923143	      0.06578550	      8.65994642	     -4.17559111	     -7.05706411	     -5.71971356	      0.53980324	      0.47661353	      0.93980901	      0.01640276	      8.55716706	     -0.60481457	     -7.05706411	     -4.57737134	      0.41314254	     -0.17158858	      0.22196843	     -5.70100554	      6.72475007	     27.02022955	     73.67902147	     -1.76489259	     -6.21474698	     10.35576568	     26.83705919	     69.46564233
      0.02916670	     -0.37548021	      0.29152312	      0.21320676	     -0.89977856	      1.24355199	     -0.08084134	     -3.92396409	     -0.70461403	     -2.94265367	      3.50344437	      0.06114664	      8.43042222	     -4.08130693	     -7.17676471	     -5.83371501	      0.54020510	      1.23005790	      0.87122221	      0.01520570	      8.16500160	     -1.42384002	     -7.17676471	     -4.78160340	      0.41218909	     -0.33798215	      0.24377251	     -6.01894075	      8.31582295	     27.42426121	     73.84418153	     -1.66188456	     -6.42375808	     11.14379851	     27.23953932	     69.79545801
      0.03333330	     -0.40028095	      0.30943386	      0.18618203	     -0.89965852	      1.24434974	     -0.08037804	     -3.93783518	     -0.67818271	     -2.74299272	      3.38482757	      0.05907639	      8.21307297	     -4.06512341	     -7.32232767	     -5.83351780	      0.56870267	      1.08586421	      0.84129467	      0.01468336	      8.07807850	     -1.15935891	     -7.32232767	     -4.77369553	      0.38474961	     -0.32196041	      0.38154956	     -6.17765983	      9.45487488	     27.31648813	     72.23096313	     -1.55684722	     -6.45669520	     11.43674659	     27.29095397	     68.73390110
      0.03750000	     -0.39859005	      0.32541150	      0.19385667	     -0.89864802	      1.24875711	     -0.07964901	     -3.91977832	     -0.65213477	     -2.73610271	      3.37704706	      0.05894059	      8.20809033	     -4.05840202	     -7.32234054	     -5.83449468	      0.57647728	      1.08900721	      0.84067347	      0.01467252	      8.07187686	     -1.15796153	     -7.32234054	     -4.77348303	      0.38368144	     -0.32616021	      0.37925816	     -6.17670278	      9.45554895	     27.31652278	     72.23230683	     -1.55285323	     -6.45404151	     11.43697285	     27.29255375	     68.73500750
      0.04166670	     -0.41301762	      0.31413977	      0.30204184	     -0.89896760	      1.24620876	     -0.07928779	     -4.15667162	     -0.56746499	     -2.55244890	      2.82790717	      0.04935629	      7.64658435	     -3.74243788	     -7.46481015	     -5.85052832	      0.52137455	      1.43436280	      0.78607433	      0.01371959	      7.28867865	     -1.79199491	     -7.46481015	     -4.87989635	      0.33910648	     -0.59102800	      0.43560737	     -6.06849991	      8.81224552	     27.36270877	     77.60826412	     -1.63351625	     -6.41167555	      9.96572550	     27.52160239	     73.51667491
      0.04583330	     -0.40724016	      0.31851786	      0.32795924	     -0.90022545	      1.24552925	     -0.07961818	     -4.21010256	     -0.53875349	     -2.39060151	      2.65419875	      0.04632451	      7.43551664	     -3.78768156	     -7.47474889	     -5.87798337	      0.48313276	      1.46000955	      0.77393942	      0.01350779	      7.02837840	     -2.07657337	     -7.47474889	     -4.90958704	      0.32545454	     -0.59917657	      0.50391961	     -6.16955652	      9.62694270	     27.35305004	     75.79131474	     -1.50967736	     -6.50219128	     10.48913260	     27.52666892	     72.10765478
      0.05000000	     -0.42804916	      0.28504816	      0.42250608	     -0.89994440	      1.23742450	     -0.08000840	     -4.18537646	     -0.50666486	     -2.40519949	      2.57211618	      0.04489190	      7.59595512	     -3.68344386	     -7.47419271	     -5.82365478	      0.43035032	      1.61242879	      0.76781606	      0.01340092	      7.13133395	     -2.04719521	     -7.47419271	     -4.89421822	      0.33572901	     -0.69998319	      0.47319949	     -6.19751067	      9.48475665	     27.46088383	     75.29604076	     -1.50806303	     -6.55848581	     10.25897529	     27.61918809	     71.71196933
